<svg width="1154" height="779" viewBox="0 0 1154 779" fill="none" xmlns="http://www.w3.org/2000/svg">
<path d="M862.209 48.6339C863.06 55.5544 859.43 62.6537 852.258 68.5329C845.108 74.3934 834.657 78.8253 822.589 80.309C810.52 81.7927 799.307 80.0243 790.951 76.0702C782.568 72.1034 777.326 66.0947 776.475 59.1743C775.625 52.2538 779.255 45.1545 786.427 39.2752C793.577 33.4148 804.028 28.9829 816.096 27.4991C828.164 26.0154 839.378 27.7838 847.734 31.738C856.117 35.7048 861.359 41.7134 862.209 48.6339Z" stroke="white" stroke-width="4"/>
<path d="M726.288 101.578C728.567 112.995 722.079 125.504 708.716 136.537C695.425 147.511 675.722 156.653 652.747 161.24C629.772 165.827 608.069 164.952 591.583 159.924C575.008 154.868 564.213 145.81 561.934 134.393C559.654 122.976 566.143 110.467 579.506 99.4338C592.797 88.4603 612.5 79.3181 635.475 74.7309C658.45 70.1438 680.153 71.0191 696.639 76.0476C713.214 81.1034 724.008 90.1617 726.288 101.578Z" stroke="white" stroke-width="4"/>
<path d="M353.44 232.564C354.235 234.807 353.749 237.464 351.954 240.037C350.161 242.606 347.143 244.937 343.285 246.304C339.427 247.671 335.615 247.759 332.605 246.892C329.59 246.024 327.54 244.265 326.746 242.022C325.951 239.779 326.437 237.122 328.232 234.549C330.025 231.98 333.042 229.649 336.9 228.282C340.759 226.915 344.57 226.827 347.581 227.694C350.596 228.563 352.646 230.321 353.44 232.564Z" stroke="white" stroke-width="4"/>
<path d="M1150.3 11.6874C1150.45 14.0626 1149.26 16.4843 1146.82 18.4658C1144.4 20.4445 1140.85 21.8588 1136.77 22.1152C1132.68 22.3716 1128.99 21.411 1126.34 19.7516C1123.68 18.0897 1122.19 15.8365 1122.04 13.4614C1121.89 11.0862 1123.09 8.66451 1125.52 6.683C1127.95 4.70434 1131.49 3.29002 1135.57 3.03364C1139.66 2.77726 1143.35 3.73779 1146 5.39724C1148.67 7.05909 1150.15 9.31231 1150.3 11.6874Z" stroke="white" stroke-width="4"/>
<path d="M1086.99 74.5299C1087.51 78.7284 1085.5 83.0622 1081.38 86.6796C1077.26 90.2886 1071.19 93.0198 1064.12 93.8893C1057.04 94.7588 1050.49 93.5804 1045.62 91.0756C1040.74 88.5651 1037.75 84.8457 1037.23 80.6472C1036.72 76.4487 1038.72 72.1149 1042.85 68.4976C1046.96 64.8885 1053.04 62.1573 1060.11 61.2878C1067.18 60.4183 1073.74 61.5967 1078.6 64.1015C1083.48 66.6121 1086.47 70.3314 1086.99 74.5299Z" stroke="white" stroke-width="4"/>
<path d="M411.448 180.122C412.594 184.796 411.138 189.797 407.552 194.154C403.966 198.511 398.324 202.106 391.443 203.793C384.561 205.479 377.895 204.901 372.701 202.696C367.508 200.492 363.904 196.73 362.758 192.057C361.612 187.383 363.069 182.381 366.654 178.025C370.24 173.668 375.883 170.072 382.764 168.386C389.645 166.699 396.311 167.278 401.505 169.482C406.698 171.687 410.303 175.448 411.448 180.122Z" stroke="white" stroke-width="4"/>
<path d="M64.046 660.034C68.9077 663.222 71.7124 668.826 72.1261 675.552C72.5398 682.278 70.5363 689.992 65.9166 697.038C61.2968 704.084 55.0205 708.996 48.6869 711.299C42.3536 713.601 36.0961 713.263 31.2345 710.075C26.3728 706.887 23.5681 701.283 23.1544 694.557C22.7407 687.831 24.7442 680.116 29.3639 673.071C33.9837 666.025 40.2599 661.112 46.5936 658.81C52.9269 656.508 59.1844 656.846 64.046 660.034Z" stroke="white" stroke-width="4"/>
<path d="M27.7556 744.464C30.0553 745.921 31.4806 748.567 31.7391 751.911C31.9976 755.256 31.0609 759.167 28.7658 762.79C26.4707 766.413 23.3348 768.931 20.2 770.127C17.0655 771.322 14.0649 771.163 11.7652 769.707C9.46549 768.25 8.04021 765.605 7.78175 762.26C7.52325 758.915 8.45995 755.004 10.755 751.381C13.0501 747.758 16.186 745.24 19.3209 744.044C22.4553 742.849 25.4559 743.008 27.7556 744.464Z" stroke="white" stroke-width="4"/>
</svg>
