<svg width="30" height="18" viewBox="0 0 30 18" fill="none" xmlns="http://www.w3.org/2000/svg">
<mask id="mask0_2639_4290" style="mask-type:alpha" maskUnits="userSpaceOnUse" x="0" y="0" width="30" height="18">
<path fill-rule="evenodd" clip-rule="evenodd" d="M18.6696 17.316C19.7016 17.764 20.8576 17.988 22.1376 17.988C23.0176 17.988 23.8696 17.876 24.6936 17.652C25.5256 17.428 26.2696 17.092 26.9256 16.644C27.5816 16.188 28.1016 15.616 28.4856 14.928C28.8776 14.232 29.0736 13.42 29.0736 12.492C29.0736 11.62 28.9096 10.9 28.5816 10.332C28.2616 9.76397 27.8496 9.30797 27.3456 8.96397C26.8496 8.61197 26.3296 8.33997 25.7856 8.14797C25.2416 7.94797 24.7456 7.78797 24.2976 7.66797L21.2976 6.85197C20.9296 6.75597 20.5696 6.63597 20.2176 6.49197C19.8656 6.34797 19.5736 6.15997 19.3416 5.92797C19.1096 5.68797 18.9936 5.37997 18.9936 5.00397C18.9936 4.59597 19.1336 4.24397 19.4136 3.94797C19.7016 3.65197 20.0696 3.42797 20.5176 3.27597C20.9736 3.11597 21.4576 3.04397 21.9696 3.05997C22.4896 3.07597 22.9856 3.18397 23.4576 3.38397C23.9376 3.58397 24.3496 3.87597 24.6936 4.25997C25.0376 4.64397 25.2736 5.11597 25.4016 5.67597L28.9296 5.07597C28.6496 3.99597 28.1936 3.08397 27.5616 2.33997C26.9296 1.58797 26.1456 1.01597 25.2096 0.623969C24.2736 0.231969 23.2096 0.0279686 22.0176 0.0119688C20.8336 0.0039684 19.7536 0.187968 18.7776 0.563969C17.8016 0.939968 17.0216 1.51197 16.4376 2.27997C15.8536 3.04797 15.5616 4.01197 15.5616 5.17197C15.5616 5.99597 15.6976 6.67997 15.9696 7.22397C16.2496 7.75997 16.5976 8.19197 17.0136 8.51997C17.4296 8.84797 17.8576 9.09997 18.2976 9.27597C18.7456 9.45197 19.1376 9.58797 19.4736 9.68397L23.9616 11.004C24.2976 11.108 24.5736 11.224 24.7896 11.352C25.0136 11.48 25.1856 11.616 25.3056 11.76C25.4256 11.904 25.5096 12.06 25.5576 12.228C25.6136 12.388 25.6416 12.556 25.6416 12.732C25.6416 13.212 25.4776 13.616 25.1496 13.944C24.8296 14.272 24.4176 14.52 23.9136 14.688C23.4096 14.856 22.8896 14.94 22.3536 14.94C21.3936 14.94 20.5376 14.672 19.7856 14.136C19.0336 13.6 18.5376 12.836 18.2976 11.844L14.8896 12.348C15.0656 13.516 15.4816 14.524 16.1376 15.372C16.8016 16.212 17.6456 16.86 18.6696 17.316ZM0 0.348145V17.6281H3.264V11.7721H7.296C7.456 11.7721 7.68 11.7641 7.968 11.7481C8.256 11.7321 8.512 11.7081 8.736 11.6761C9.76 11.5161 10.6 11.1761 11.256 10.6561C11.92 10.1361 12.408 9.48415 12.72 8.70015C13.04 7.90815 13.2 7.02814 13.2 6.06014C13.2 5.09214 13.044 4.21614 12.732 3.43214C12.42 2.64014 11.932 1.98414 11.268 1.46414C10.612 0.944144 9.768 0.604145 8.736 0.444145C8.512 0.404145 8.256 0.380145 7.968 0.372145C7.688 0.356145 7.464 0.348145 7.296 0.348145H0ZM7.152 8.72414H3.264V3.39614H7.152C7.32 3.39614 7.504 3.40414 7.704 3.42015C7.904 3.43614 8.088 3.46815 8.256 3.51615C8.696 3.63615 9.036 3.84015 9.276 4.12815C9.516 4.40814 9.68 4.72414 9.768 5.07615C9.864 5.42015 9.912 5.74814 9.912 6.06014C9.912 6.37214 9.864 6.70414 9.768 7.05614C9.68 7.40014 9.516 7.71614 9.276 8.00414C9.036 8.28415 8.696 8.48415 8.256 8.60415C8.088 8.65215 7.904 8.68414 7.704 8.70015C7.504 8.71615 7.32 8.72414 7.152 8.72414Z" fill="white"/>
</mask>
<g mask="url(#mask0_2639_4290)">
<rect x="-5" y="-3" width="19" height="15" fill="#DEFFC3"/>
<rect x="-5" y="10" width="19" height="11" fill="#FFC9C9"/>
<rect x="14" y="-3" width="18" height="15" fill="#FFC980"/>
<rect x="13" y="10" width="19" height="11" fill="#A9D8EA"/>
</g>
</svg>
